<svg width="21" height="21" viewBox="0 0 21 21" fill="none" xmlns="http://www.w3.org/2000/svg">
<path d="M7.60314 10.7365C6.05499 9.67743 5.03906 7.89736 5.03906 5.88C5.03906 2.63257 7.67163 0 10.9191 0C14.1665 0 16.7991 2.63257 16.7991 5.88C16.7991 7.89717 15.7833 9.6771 14.2354 10.7362C15.6326 11.2278 16.9164 12.0287 17.9837 13.0959C19.8572 14.9694 20.9097 17.5104 20.9097 20.1599V20.9099H12.1197V19.4099H19.3765C19.2013 17.4332 18.3375 15.571 16.923 14.1566C15.5187 12.7523 13.6731 11.8907 11.7122 11.707C11.6363 11.6999 11.5787 11.7007 11.4395 11.7029C11.3311 11.7045 11.1734 11.707 10.9191 11.707C10.6654 11.707 10.5042 11.7049 10.3935 11.7035C10.2507 11.7017 10.1918 11.7009 10.1265 11.707C8.16579 11.891 6.32047 12.7525 4.91635 14.1566C3.50191 15.571 2.6381 17.4332 2.46286 19.4099H9.71969V20.9099H0.929688V20.1599C0.929688 17.5104 1.9822 14.9694 3.85569 13.0959C4.92274 12.0289 6.20631 11.2282 7.60314 10.7365ZM10.1776 10.1975C10.5 10.2525 10.6706 10.266 10.9191 10.266C11.1672 10.266 11.3374 10.2526 11.6609 10.1974C13.7266 9.84503 15.2991 8.04615 15.2991 5.88C15.2991 3.46099 13.3381 1.5 10.9191 1.5C8.50006 1.5 6.53906 3.46099 6.53906 5.88C6.53906 8.04628 8.11171 9.84525 10.1776 10.1975Z" fill="#fff"/>
<path d="M7.60314 10.7365C6.05499 9.67743 5.03906 7.89736 5.03906 5.88C5.03906 2.63257 7.67163 0 10.9191 0C14.1665 0 16.7991 2.63257 16.7991 5.88C16.7991 7.89717 15.7833 9.6771 14.2354 10.7362C15.6326 11.2278 16.9164 12.0287 17.9837 13.0959C19.8572 14.9694 20.9097 17.5104 20.9097 20.1599V20.9099H12.1197V19.4099H19.3765C19.2013 17.4332 18.3375 15.571 16.923 14.1566C15.5187 12.7523 13.6731 11.8907 11.7122 11.707C11.6363 11.6999 11.5787 11.7007 11.4395 11.7029C11.3311 11.7045 11.1734 11.707 10.9191 11.707C10.6654 11.707 10.5042 11.7049 10.3935 11.7035C10.2507 11.7017 10.1918 11.7009 10.1265 11.707C8.16579 11.891 6.32047 12.7525 4.91635 14.1566C3.50191 15.571 2.6381 17.4332 2.46286 19.4099H9.71969V20.9099H0.929688V20.1599C0.929688 17.5104 1.9822 14.9694 3.85569 13.0959C4.92274 12.0289 6.20631 11.2282 7.60314 10.7365ZM10.1776 10.1975C10.5 10.2525 10.6706 10.266 10.9191 10.266C11.1672 10.266 11.3374 10.2526 11.6609 10.1974C13.7266 9.84503 15.2991 8.04615 15.2991 5.88C15.2991 3.46099 13.3381 1.5 10.9191 1.5C8.50006 1.5 6.53906 3.46099 6.53906 5.88C6.53906 8.04628 8.11171 9.84525 10.1776 10.1975Z" stroke="#fff"/>
</svg>
