<svg width="9" height="6" viewBox="0 0 9 6" fill="none" xmlns="http://www.w3.org/2000/svg">
<path d="M4.78125 0.253906H4.81641C4.74609 0.183594 4.64063 0.148438 4.5 0.148438C4.39453 0.148438 4.28906 0.183594 4.18359 0.253906L0.105469 4.40234C0.0351563 4.47266 0 4.54297 0 4.68359C0 4.78906 0.0351563 4.89453 0.105469 5L0.386719 5.24609C0.457031 5.31641 0.5625 5.35156 0.667969 5.35156C0.808594 5.35156 0.914063 5.31641 0.984375 5.24609L4.5 1.66016L8.01562 5.24609C8.12109 5.31641 8.22656 5.38672 8.33203 5.38672C8.47266 5.38672 8.54297 5.31641 8.61328 5.24609L8.89453 5C8.96484 4.89453 9 4.78906 9 4.68359C9 4.54297 8.96484 4.47266 8.85938 4.40234L4.78125 0.253906Z" fill="white"/>
</svg>
