<svg width="9" height="6" viewBox="0 0 9 6" fill="none" xmlns="http://www.w3.org/2000/svg">
<path d="M4.21875 5.74609H4.18359C4.25391 5.81641 4.35938 5.85156 4.5 5.85156C4.60547 5.85156 4.71094 5.81641 4.81641 5.74609L8.89453 1.59766C8.96484 1.52734 9 1.45703 9 1.31641C9 1.21094 8.96484 1.10547 8.89453 1L8.61328 0.753906C8.54297 0.683594 8.4375 0.648438 8.33203 0.648438C8.19141 0.648438 8.08594 0.683594 8.01562 0.753906L4.5 4.33984L0.984375 0.753906C0.878906 0.683594 0.773438 0.613281 0.667969 0.613281C0.527344 0.613281 0.457031 0.683594 0.386719 0.753906L0.105469 1C0.0351562 1.10547 0 1.21094 0 1.31641C0 1.45703 0.0351562 1.52734 0.140625 1.59766L4.21875 5.74609Z" fill="white"/>
</svg>
