<svg width="52" height="53" viewBox="0 0 52 53" fill="none" xmlns="http://www.w3.org/2000/svg">
<g clip-path="url(#clip0)">
<path d="M25.2604 0.0134894C14.9291 0.382961 6.34638 8.59826 5.35484 19.0847C5.15226 21.182 5.26954 23.2141 5.63204 25.1593C5.63204 25.1593 5.66403 25.3875 5.77065 25.8221C6.0905 27.2783 6.57028 28.691 7.16734 30.0167C9.24638 35.0372 14.0548 43.4372 24.8445 52.5762C25.5056 53.1413 26.4758 53.1413 27.1475 52.5762C37.9372 43.4481 42.7457 35.0481 44.8354 30.0059C45.4431 28.6801 45.9122 27.2783 46.2321 25.8113C46.328 25.3875 46.3707 25.1484 46.3707 25.1484C46.6159 23.8444 46.7438 22.5078 46.7438 21.1386C46.7438 9.20681 37.0523 -0.410316 25.2604 0.0134894ZM25.996 31.6576C20.4306 31.6576 15.9206 27.061 15.9206 21.3885C15.9206 15.716 20.4306 11.1194 25.996 11.1194C31.5615 11.1194 36.0714 15.716 36.0714 21.3885C36.0714 27.061 31.5615 31.6576 25.996 31.6576Z" fill="#6441A5"/>
</g>
<defs>
<clipPath id="clip0">
<rect width="52" height="53" fill="white"/>
</clipPath>
</defs>
</svg>
