<svg width="14" height="14" viewBox="0 0 14 14" fill="none" xmlns="http://www.w3.org/2000/svg">
<g clip-path="url(#clip0)">
<path d="M0.480632 6.58034C0.518907 6.65416 0.595459 6.70337 0.680212 6.70611C0.764965 6.70884 0.84425 6.6651 0.887993 6.59401C1.84762 5.02472 4.30545 3.9694 6.99841 3.9694C9.66403 3.9694 12.1137 5.04932 13.0979 6.6569C13.1416 6.72524 13.2155 6.76899 13.2975 6.76899C13.3002 6.76899 13.3029 6.76899 13.3084 6.76899C13.3932 6.76625 13.4697 6.71704 13.508 6.64049L13.9755 5.70821C14.011 5.63439 14.0083 5.54964 13.9646 5.48129C13.0131 3.92566 10.3175 2.72818 7.54794 2.58328L8.08653 2.04469C8.18496 2.08023 8.28885 2.1021 8.39821 2.1021C8.91219 2.1021 9.33049 1.68381 9.33049 1.16982C9.33049 0.655833 8.91219 0.237536 8.39821 0.237536C7.88422 0.237536 7.46592 0.655833 7.46592 1.16982C7.46592 1.40221 7.55341 1.61272 7.69558 1.77676L7.00115 2.47119L6.30399 1.77403C6.44615 1.60999 6.53364 1.39947 6.53364 1.16709C6.53364 0.653099 6.11534 0.234802 5.60136 0.234802C5.08737 0.234802 4.66907 0.653099 4.66907 1.16709C4.66907 1.68107 5.08737 2.09937 5.60136 2.09937C5.71072 2.09937 5.81461 2.0775 5.91303 2.04196L6.45162 2.58055C3.68211 2.72271 0.98915 3.92019 0.0349948 5.47855C-0.0087487 5.54964 -0.0114827 5.63439 0.0267929 5.70821L0.480632 6.58034Z" fill="#9A9A9E"/>
<path d="M7.00116 4.43408C3.14079 4.43408 0.00219727 6.9466 0.00219727 10.0333C0.00219727 12.0919 1.67812 13.7651 3.73406 13.7651H10.2655C12.3242 13.7651 13.9974 12.0892 13.9974 10.0333C14.0001 6.9466 10.8615 4.43408 7.00116 4.43408Z" fill="#9A9A9E"/>
</g>
<defs>
<clipPath id="clip0">
<rect width="14" height="14" fill="white"/>
</clipPath>
</defs>
</svg>
